<?xml version="1.0" encoding="utf-8"?>
<svg version="1.1" id="collapse" xmlns="http://www.w3.org/2000/svg" xmlns:xlink="http://www.w3.org/1999/xlink" x="0px" y="0px"
	 viewBox="0 0 492 289" style="enable-background:new 0 0 492 289;" xml:space="preserve" fill="#fff">
<path d="M246.1,191.9L62,7.9C57,2.8,50.2,0,43,0c-7.2,0-14,2.8-19,7.9L7.9,24C2.8,29,0,35.8,0,43s2.8,14,7.9,19L227,281.2
	c5.1,5.1,11.9,7.9,19.1,7.8c7.2,0,14-2.8,19.1-7.8L484.1,62.2c5.1-5.1,7.9-11.8,7.9-19c0-7.2-2.8-14-7.9-19L468,8.1
	c-10.5-10.5-27.6-10.5-38.1,0L246.1,191.9z"/>
</svg>
