<svg width="0" height="0" class="hidden">
    <symbol viewBox="0 0 16 16" xmlns="http://www.w3.org/2000/svg" id="event-favorite" fill="currentColor">
	<path d="M12.821 16a.5.5 0 0 1-.203-.043L8 13.901l-4.618 2.056a.501.501 0 0 1-.694-.556L3.707 10.3.147 6.732a.502.502 0 0 1 .255-.845l5.103-1.023L7.543.272c.16-.362.753-.362.914 0l2.037 4.592 5.104 1.023a.5.5 0 0 1 .255.845l-3.56 3.567L13.31 15.4a.5.5 0 0 1-.49.6zM8 12.852c.069 0 .138.015.203.043l3.938 1.754-.882-4.417a.502.502 0 0 1 .137-.452l3.09-3.094-4.441-.89a.5.5 0 0 1-.36-.288L8 1.708l-1.686 3.8a.5.5 0 0 1-.36.288l-4.44.89 3.09 3.094a.503.503 0 0 1 .136.452l-.882 4.417 3.939-1.754A.497.497 0 0 1 8 12.852z"></path>
    </symbol>
    <symbol xmlns="http://www.w3.org/2000/svg" viewBox="0 0 512 512" id="event-soccer" fill="#33cc33">
	<path d="M256 0c-29.728 0-58.176 5.344-84.736 14.72-.16.032-.288.096-.416.16-48.064 17.024-89.472 47.936-119.52 88-.032.064-.096.128-.16.224C19.2 145.824 0 198.656 0 256c0 141.152 114.848 256 256 256s256-114.848 256-256S397.152 0 256 0zm199.072 153.76c12 23.264 20.064 48.864 23.264 75.968l-32.128-35.072 8.864-40.896zm-24.544-37.824l-15.712 72.416-50.208 24.576-92.352-67.296V83.2l65.824-35.392a224.217 224.217 0 0 1 92.448 68.128zM343.904 237.44l-35.2 98.56H203.328l-34.688-98.528 87.648-63.904 87.616 63.872zM256 32c12.832 0 25.312 1.312 37.568 3.392L256.32 55.424l-37.248-20.128C231.104 33.312 243.392 32 256 32zm-81.536 15.584l65.824 35.52v62.528l-92.32 67.296-50.464-24.64-15.68-72.832c24.256-30.016 56.128-53.536 92.64-67.872zm-117.248 105.6l8.928 41.44-32.48 35.296c3.168-27.392 11.36-53.248 23.552-76.736zm14.112 229.344c-20.896-30.4-34.496-66.144-38.24-104.768l54.176-58.848 49.408 24.16 37.216 105.696-31.392 37.696-71.168-3.936zM99.68 416.16l37.888 2.08 11.008 34.24c-17.952-9.856-34.336-22.144-48.896-36.32zm213.376 56.192C294.816 477.184 275.744 480 256 480c-23.872 0-46.848-3.84-68.448-10.784l-20.128-62.688L199.488 368h113.088l31.52 37.344-31.04 67.008zm42.72-16.096l18.176-39.264 46.208-9.12c-18.304 19.776-40.064 36.224-64.384 48.384zm13.312-70.912l-30.944-36.64 37.696-105.632 49.184-24.096 53.856 58.784c-3.2 33.312-13.92 64.416-30.176 91.872l-79.616 15.712z"></path>
    </symbol>
    <symbol xmlns="http://www.w3.org/2000/svg" viewBox="0 0 512 512" id="event-basketball" fill="#ff6633">
	<path d="M437.024 74.976C388.672 26.624 324.384 0 256 0S123.328 26.624 74.976 74.976 0 187.616 0 256s26.624 132.672 74.976 181.024S187.616 512 256 512s132.672-26.624 181.024-74.976C485.376 388.672 512 324.384 512 256s-26.624-132.672-74.976-181.024zm42.176 164.32c-44.896-10.88-85.888-32.384-120.512-63.36l66.464-66.464c31.712 36.512 50.496 81.6 54.048 129.824zM402.528 86.848l-66.464 66.464c-30.976-34.624-52.48-75.616-63.36-120.512 48.224 3.552 93.312 22.304 129.824 54.048zM239.808 32.8c11.584 53.504 36.768 102.368 73.632 143.136L256 233.376 109.472 86.848c36.64-31.84 81.92-50.624 130.336-54.048zm-152.96 76.672L233.376 256l-57.44 57.44c-40.768-36.864-89.6-62.048-143.136-73.632 3.424-48.384 22.208-93.696 54.048-130.336zM32.8 272.704c44.864 10.88 85.856 32.384 120.512 63.36l-66.464 66.464c-31.712-36.512-50.496-81.6-54.048-129.824zm76.672 152.448l66.464-66.464c30.976 34.624 52.48 75.616 63.36 120.512-48.224-3.552-93.312-22.304-129.824-54.048zm162.72 54.048c-11.584-53.504-36.768-102.368-73.632-143.136l57.44-57.44 146.528 146.528c-36.64 31.84-81.92 50.624-130.336 54.048zm152.96-76.672L278.624 256l57.44-57.44c40.768 36.864 89.6 62.048 143.136 73.632-3.424 48.384-22.208 93.696-54.048 130.336z"></path>
    </symbol>
    <symbol xmlns="http://www.w3.org/2000/svg" viewBox="0 0 512 512" id="event-ice-hockey" fill="#66ccff">
	<path d="M464 0c-15.264 0-29.728 7.328-38.72 19.648L158.176 384H64c-35.296 0-64 28.704-64 64s28.704 64 64 64h127.296c22.048 0 42.272-11.104 54.016-29.696L504.544 73.728A48.02 48.02 0 0 0 512 48c0-26.464-21.536-48-48-48zM96 480H64c-17.664 0-32-14.368-32-32 0-17.632 14.336-32 32-32h32v64zm122.272-14.848C212.416 474.464 202.304 480 191.296 480H128v-64h30.176c10.176 0 19.872-4.896 25.824-13.088l44.576-60.8 46.88 32.928-57.184 90.112zM292.608 348l-45.12-31.712 27.552-37.568 41.216 32L292.608 348zM477.536 56.544L333.504 283.552l-39.552-30.656L451.104 38.528C459.392 27.296 480 34.016 480 48c0 3.04-.832 6.016-2.464 8.544z"></path>
	<path d="M144 224H16c-8.832 0-16 7.168-16 16v64c0 8.832 7.168 16 16 16h128c8.832 0 16-7.168 16-16v-64c0-8.832-7.168-16-16-16zm-16 64H32v-32h96v32z"></path>
    </symbol>
    <symbol xmlns="http://www.w3.org/2000/svg" viewBox="0 0 512 512" id="event-volleyball" fill="#ff9900">
	<path d="M256 0C114.848 0 0 114.848 0 256s114.848 256 256 256 256-114.848 256-256S397.152 0 256 0zm221.248 222.784c-50.528-17.088-130.208-28.64-219.584 14.688-33.44-22.688-57.376-48.544-74.368-75.104 130.88-53.824 238.912-6.4 284.192 20.48 4.448 12.832 7.712 26.176 9.76 39.936zM256 32c79.04 0 148.512 41.28 188.384 103.296-61.344-26.72-161.088-49.984-276.704-1.024a261.128 261.128 0 0 1-21.952-73.024C178.304 42.72 215.904 32 256 32zM116.48 81.056c11.424 57.76 43.296 128.384 122.624 182.4-3.04 42.944-14.752 78.112-30.272 106.592C115.04 294.4 80.576 201.312 69.024 132.96a225.458 225.458 0 0 1 47.456-51.904zm25.856 367.616C76.416 409.632 32 337.984 32 256c0-27.264 5.152-53.312 14.112-77.504 18.464 68.768 59.04 150.944 145.344 219.168-16.416 22.464-34.016 39.264-49.12 51.008zm93.408 30.304c-21.696-1.952-42.432-7.072-61.92-14.816 40.096-34.752 89.664-97.632 97.024-197.312 33.408-16.352 65.248-24.576 94.656-26.88-15.008 118.592-76.864 194.816-129.76 239.008zm48.096-.896c50.592-50.528 101.088-127.616 113.984-238.464 31.488 1.696 59.168 9.184 82.08 18.368-.992 113.184-86.304 206.4-196.064 220.096z"></path>
    </symbol>
    <symbol xmlns="http://www.w3.org/2000/svg" viewBox="0 0 458 458" id="event-handball" fill="#cc9966">
	<path d="M160.9 331.1c-4.1 0-8.2-1.6-11.3-4.7L14 190.8c-18.7-18.7-18.7-49.1 0-67.8 18.7-18.7 49.1-18.7 67.8 0l120.6 120.6c6.2 6.2 6.2 16.4 0 22.6-6.2 6.2-16.4 6.2-22.6 0L59.2 145.6c-6.2-6.2-16.4-6.2-22.6 0-6.2 6.2-6.2 16.4 0 22.6l135.6 135.6c6.2 6.2 6.2 16.4 0 22.6-3.1 3.2-7.2 4.7-11.3 4.7z"></path>
	<path d="M236.3 225.7c-4.1 0-8.2-1.6-11.3-4.7L89.3 85.3c-6-6-16.6-6-22.6 0-3 3-4.7 7-4.7 11.3s1.7 8.3 4.7 11.3l26.4 26.4c6.2 6.2 6.2 16.4 0 22.6-6.2 6.2-16.4 6.2-22.6 0l-26.3-26.4c-18.7-18.7-18.7-49.1 0-67.8 18.1-18.2 49.7-18.1 67.8 0l135.6 135.6c6.2 6.2 6.2 16.4 0 22.6-3.1 3.2-7.2 4.8-11.3 4.8z"></path>
	<path d="M281.5 180.5c-4.1 0-8.2-1.6-11.3-4.7L164.7 70.3c-6-6-16.6-6-22.6 0-6.2 6.2-6.2 16.4 0 22.6l11.3 11.3c6.2 6.2 6.2 16.4 0 22.6-6.2 6.2-16.4 6.2-22.6 0l-11.3-11.3c-18.7-18.7-18.7-49.1 0-67.8 18.1-18.1 49.7-18.1 67.8 0l105.5 105.5c6.2 6.2 6.2 16.4 0 22.6-3.1 3.1-7.2 4.7-11.3 4.7z"></path>
	<path d="M274 454.3c-7.8 0-15.8-.9-23.6-2.8L78.8 410.9C70.1 409 62 404.6 55.4 398c-18.7-18.7-18.7-49.1 0-67.8 6.2-6.2 13.7-10.5 21.9-12.5.3-.1.7-.2 1-.3l79.1-17.9c8.6-2 17.2 3.5 19.1 12 2 8.6-3.4 17.2-12 19.1l-78.3 17.7-.9.3c-2.6.6-5.2 2-7.2 4.1-6.2 6.2-6.2 16.4 0 22.6 2.1 2.1 4.7 3.6 7.3 4.2.2 0 .4.1.5.1l171.8 40.7c23.5 5.5 47.8-1.3 65-18.4l83.1-83.1c13.1-13.1 20.3-30.5 20.3-49s-7.2-35.9-20.3-49L224.9 40.1c-6-6-16.6-6-22.6 0-3 3-4.7 7-4.7 11.3s1.7 8.3 4.7 11.3c6.2 6.2 6.2 16.4 0 22.6-6.2 6.2-16.4 6.2-22.6 0-18.7-18.7-18.7-49.1 0-67.8 18.7-18.7 49.1-18.7 67.8 0l180.8 180.8c19.1 19.1 29.7 44.5 29.7 71.6s-10.5 52.5-29.7 71.6l-83.1 83.1c-19.2 19.3-44.8 29.7-71.2 29.7z"></path>
    </symbol>
    <symbol xmlns="http://www.w3.org/2000/svg" viewBox="0 0 512 512" id="icon-search" fill="currentColor">
	<path d="M225.474 0C101.151 0 0 101.151 0 225.474c0 124.33 101.151 225.474 225.474 225.474 124.33 0 225.474-101.144 225.474-225.474C450.948 101.151 349.804 0 225.474 0zm0 409.323c-101.373 0-183.848-82.475-183.848-183.848S124.101 41.626 225.474 41.626s183.848 82.475 183.848 183.848-82.475 183.849-183.848 183.849z"></path>
	<path d="M505.902 476.472L386.574 357.144c-8.131-8.131-21.299-8.131-29.43 0-8.131 8.124-8.131 21.306 0 29.43l119.328 119.328A20.74 20.74 0 0 0 491.187 512a20.754 20.754 0 0 0 14.715-6.098c8.131-8.124 8.131-21.306 0-29.43z"></path>
    </symbol>
    <symbol xmlns="http://www.w3.org/2000/svg" viewBox="0 0 492.313 492.313" id="muiltilive" fill="currentColor">
	<path d="M70.678.002C31.707.002 0 31.714 0 70.685c0 38.971 31.707 70.673 70.678 70.673s70.678-31.702 70.678-70.673c0-38.971-31.707-70.683-70.678-70.683zm0 121.664c-28.115 0-50.986-22.865-50.986-50.981 0-28.115 22.87-50.99 50.986-50.99 28.115 0 50.986 22.875 50.986 50.99-.001 28.115-22.871 50.981-50.986 50.981zM246.154.002c-38.971 0-70.678 31.712-70.678 70.683 0 38.971 31.707 70.673 70.678 70.673 38.976 0 70.678-31.702 70.678-70.673 0-38.971-31.702-70.683-70.678-70.683zm0 121.664c-28.115 0-50.986-22.865-50.986-50.981 0-28.115 22.87-50.99 50.986-50.99 28.111 0 50.986 22.875 50.986 50.99-.001 28.115-22.876 50.981-50.986 50.981zM421.63.002c-38.971 0-70.673 31.712-70.673 70.683 0 38.971 31.702 70.673 70.673 70.673s70.683-31.702 70.683-70.673c0-38.971-31.712-70.683-70.683-70.683zm0 121.664c-28.115 0-50.981-22.865-50.981-50.981 0-28.115 22.865-50.99 50.981-50.99 28.115 0 50.99 22.875 50.99 50.99 0 28.115-22.875 50.981-50.99 50.981zM70.678 175.483C31.707 175.483 0 207.185 0 246.156c0 38.971 31.707 70.683 70.678 70.683s70.678-31.711 70.678-70.683c0-38.971-31.707-70.673-70.678-70.673zm0 121.664c-28.115 0-50.986-22.875-50.986-50.99 0-28.115 22.87-50.981 50.986-50.981 28.115 0 50.986 22.865 50.986 50.981-.001 28.115-22.871 50.99-50.986 50.99zm175.476-121.664c-38.971 0-70.678 31.702-70.678 70.673 0 38.971 31.707 70.683 70.678 70.683 38.976 0 70.678-31.711 70.678-70.683 0-38.971-31.702-70.673-70.678-70.673zm0 121.664c-28.115 0-50.986-22.875-50.986-50.99 0-28.115 22.87-50.981 50.986-50.981 28.111 0 50.986 22.865 50.986 50.981-.001 28.115-22.876 50.99-50.986 50.99zM421.63 175.483c-38.971 0-70.673 31.702-70.673 70.673 0 38.971 31.702 70.683 70.673 70.683s70.683-31.711 70.683-70.683c0-38.971-31.712-70.673-70.683-70.673zm0 121.664c-28.115 0-50.981-22.875-50.981-50.99 0-28.115 22.865-50.981 50.981-50.981 28.115 0 50.99 22.865 50.99 50.981 0 28.115-22.875 50.99-50.99 50.99zM70.678 350.954C31.707 350.954 0 382.666 0 421.637c0 38.971 31.707 70.673 70.678 70.673s70.678-31.702 70.678-70.673c0-38.971-31.707-70.683-70.678-70.683zm0 121.664c-28.115 0-50.986-22.865-50.986-50.981 0-28.115 22.87-50.99 50.986-50.99 28.115 0 50.986 22.875 50.986 50.99-.001 28.115-22.871 50.981-50.986 50.981zm175.476-121.664c-38.971 0-70.678 31.712-70.678 70.683 0 38.971 31.707 70.673 70.678 70.673 38.976 0 70.678-31.702 70.678-70.673 0-38.971-31.702-70.683-70.678-70.683zm0 121.664c-28.115 0-50.986-22.865-50.986-50.981 0-28.115 22.87-50.99 50.986-50.99 28.111 0 50.986 22.875 50.986 50.99-.001 28.115-22.876 50.981-50.986 50.981zM421.63 350.954c-38.971 0-70.673 31.712-70.673 70.683 0 38.971 31.702 70.673 70.673 70.673s70.683-31.702 70.683-70.673c0-38.971-31.712-70.683-70.683-70.683zm0 121.664c-28.115 0-50.981-22.865-50.981-50.981 0-28.115 22.865-50.99 50.981-50.99 28.115 0 50.99 22.875 50.99 50.99 0 28.115-22.875 50.981-50.99 50.981z"></path>
    </symbol>
    <symbol xmlns="http://www.w3.org/2000/svg" viewBox="0 0 469.333 469.333" id="event-see" fill="currentColor">
	<path d="M234.667 170.667c-35.307 0-64 28.693-64 64s28.693 64 64 64 64-28.693 64-64-28.694-64-64-64z"></path>
	<path d="M234.667 74.667C128 74.667 36.907 141.013 0 234.667c36.907 93.653 128 160 234.667 160 106.773 0 197.76-66.347 234.667-160-36.907-93.654-127.894-160-234.667-160zm0 266.666c-58.88 0-106.667-47.787-106.667-106.667S175.787 128 234.667 128s106.667 47.787 106.667 106.667-47.787 106.666-106.667 106.666z"></path>
    </symbol>
    <symbol xmlns="http://www.w3.org/2000/svg" viewBox="0 0 512 512" id="event-statistic" fill="currentColor">
	<path d="M124.52 239.304H16.696C7.475 239.304 0 246.78 0 256v215.647c0 9.22 7.475 16.696 16.696 16.696H124.52c9.22 0 16.696-7.475 16.696-16.696V256c-.001-9.22-7.476-16.696-16.696-16.696zM309.912 23.658H202.089c-9.22 0-16.696 7.475-16.696 16.696v431.293c0 9.22 7.475 16.696 16.696 16.696h107.824c9.22 0 16.696-7.474 16.696-16.695V40.353c-.001-9.22-7.476-16.695-16.697-16.695zM495.304 131.48H387.481c-9.22 0-16.696 7.475-16.696 16.696v323.47c0 9.22 7.475 16.696 16.696 16.696h107.824c9.22 0 16.696-7.475 16.696-16.696v-323.47c-.001-9.22-7.476-16.696-16.697-16.696z"></path>
    </symbol>
</svg>